HIERARCHY
ROOT hip
{
  OFFSET 81.3352 86.3102 125.771
  CHANNELS 6 Xposition Yposition Zposition Zrotation Xrotation Yrotation
  JOINT abdomen
  {
    OFFSET 0 20.6881 -0.73152
    CHANNELS 3 Zrotation Xrotation Yrotation
    JOINT chest
    {
      OFFSET 0 11.7043 -0.48768
      CHANNELS 3 Zrotation Xrotation Yrotation
      JOINT neck
      {
        OFFSET 0 22.1894 -2.19456
        CHANNELS 3 Zrotation Xrotation Yrotation
        JOINT head
        {
          OFFSET -0.24384 7.07133 1.2192
          CHANNELS 3 Zrotation Xrotation Yrotation
          JOINT leftEye
          {
            OFFSET 4.14528 8.04674 8.04672
            CHANNELS 3 Zrotation Xrotation Yrotation
            End Site
            {
              OFFSET 1 0 0
            }
          }
          JOINT rightEye
          {
            OFFSET -3.6576 8.04674 8.04672
            CHANNELS 3 Zrotation Xrotation Yrotation
            End Site
            {
              OFFSET 1 0 0
            }
          }
        }
      }
      JOINT rCollar
      {
        OFFSET -2.68224 19.2634 -4.8768
        CHANNELS 3 Zrotation Xrotation Yrotation
        JOINT rShldr
        {
          OFFSET -8.77824 -1.95073 1.46304
          CHANNELS 3 Zrotation Xrotation Yrotation
          JOINT rForeArm
          {
            OFFSET -28.1742 -1.7115 0.48768
            CHANNELS 3 Zrotation Xrotation Yrotation
            JOINT rHand
            {
              OFFSET -22.5879 0.773209 7.07136
              CHANNELS 3 Zrotation Xrotation Yrotation
              JOINT rThumb1
              {
                OFFSET -1.2192 -0.487915 3.41376
                CHANNELS 3 Zrotation Xrotation Yrotation
                JOINT rThumb2
                {
                  OFFSET -3.37035 -0.52449 3.41376
                  CHANNELS 3 Zrotation Xrotation Yrotation
                  End Site
                  {
                    OFFSET -1.78271 -1.18214 1.43049
                  }
                }
              }
              JOINT rIndex1
              {
                OFFSET -7.75947 0.938293 5.60832
                CHANNELS 3 Zrotation Xrotation Yrotation
                JOINT rIndex2
                {
                  OFFSET -2.54057 -0.884171 1.56538
                  CHANNELS 3 Zrotation Xrotation Yrotation
                  End Site
                  {
                    OFFSET -1.62519 -0.234802 1.16502
                  }
                }
              }
              JOINT rMid1
              {
                OFFSET -8.24714 1.18213 3.41376
                CHANNELS 3 Zrotation Xrotation Yrotation
                JOINT rMid2
                {
                  OFFSET -3.10165 -0.590103 1.0647
                  CHANNELS 3 Zrotation Xrotation Yrotation
                  End Site
                  {
                    OFFSET -2.48547 -0.328903 0.83742
                  }
                }
              }
              JOINT rRing1
              {
                OFFSET -8.82822 0.546677 1.51678
                CHANNELS 3 Zrotation Xrotation Yrotation
                JOINT rRing2
                {
                  OFFSET -2.60934 -0.819778 -0.0198488
                  CHANNELS 3 Zrotation Xrotation Yrotation
                  End Site
                  {
                    OFFSET -2.33842 -0.294052 0.168128
                  }
                }
              }
              JOINT rPinky1
              {
                OFFSET -8.27202 -0.0477905 -0.4584
                CHANNELS 3 Zrotation Xrotation Yrotation
                JOINT rPinky2
                {
                  OFFSET -1.82734 -0.647385 -0.700984
                  CHANNELS 3 Zrotation Xrotation Yrotation
                  End Site
                  {
                    OFFSET -1.69225 -0.51767 -0.607171
                  }
                }
              }
            }
          }
        }
      }
      JOINT lCollar
      {
        OFFSET 2.68224 19.2634 -4.8768
        CHANNELS 3 Zrotation Xrotation Yrotation
        JOINT lShldr
        {
          OFFSET 8.77824 -1.95073 1.46304
          CHANNELS 3 Zrotation Xrotation Yrotation
          JOINT lForeArm
          {
            OFFSET 28.1742 -1.7115 0.48768
            CHANNELS 3 Zrotation Xrotation Yrotation
            JOINT lHand
            {
              OFFSET 22.5879 0.773209 7.07136
              CHANNELS 3 Zrotation Xrotation Yrotation
              JOINT lThumb1
              {
                OFFSET 1.2192 -0.487915 3.41376
                CHANNELS 3 Zrotation Xrotation Yrotation
                JOINT lThumb2
                {
                  OFFSET 3.37035 -0.52449 3.41376
                  CHANNELS 3 Zrotation Xrotation Yrotation
                  End Site
                  {
                    OFFSET 1.78271 -1.18214 1.43049
                  }
                }
              }
              JOINT lIndex1
              {
                OFFSET 7.75947 0.938293 5.60832
                CHANNELS 3 Zrotation Xrotation Yrotation
                JOINT lIndex2
                {
                  OFFSET 2.54057 -0.884171 1.56538
                  CHANNELS 3 Zrotation Xrotation Yrotation
                  End Site
                  {
                    OFFSET 1.62519 -0.234802 1.16502
                  }
                }
              }
              JOINT lMid1
              {
                OFFSET 8.24714 1.18213 3.41376
                CHANNELS 3 Zrotation Xrotation Yrotation
                JOINT lMid2
                {
                  OFFSET 3.10165 -0.590103 1.0647
                  CHANNELS 3 Zrotation Xrotation Yrotation
                  End Site
                  {
                    OFFSET 2.48547 -0.328903 0.83742
                  }
                }
              }
              JOINT lRing1
              {
                OFFSET 8.82822 0.546677 1.51678
                CHANNELS 3 Zrotation Xrotation Yrotation
                JOINT lRing2
                {
                  OFFSET 2.60934 -0.819778 -0.0198488
                  CHANNELS 3 Zrotation Xrotation Yrotation
                  End Site
                  {
                    OFFSET 2.33842 -0.294052 0.168128
                  }
                }
              }
              JOINT lPinky1
              {
                OFFSET 8.27202 -0.0477905 -0.4584
                CHANNELS 3 Zrotation Xrotation Yrotation
                JOINT lPinky2
                {
                  OFFSET 1.82734 -0.647385 -0.700984
                  CHANNELS 3 Zrotation Xrotation Yrotation
                  End Site
                  {
                    OFFSET 1.69225 -0.51767 -0.607171
                  }
                }
              }
            }
          }
        }
      }
    }
  }
  JOINT rButtock
  {
    OFFSET -8.77824 4.35084 1.2192
    CHANNELS 3 Zrotation Xrotation Yrotation
    JOINT rThigh
    {
      OFFSET 0 -1.70687 -2.19456
      CHANNELS 3 Zrotation Xrotation Yrotation
      JOINT rShin
      {
        OFFSET 0 -36.8199 0.73152
        CHANNELS 3 Zrotation Xrotation Yrotation
        JOINT rFoot
        {
          OFFSET 0.73152 -45.1104 -5.12064
          CHANNELS 3 Zrotation Xrotation Yrotation
          End Site
          {
            OFFSET -1.1221 -3.69964 12.103
          }
        }
      }
    }
  }
  JOINT lButtock
  {
    OFFSET 8.77824 4.35084 1.2192
    CHANNELS 3 Zrotation Xrotation Yrotation
    JOINT lThigh
    {
      OFFSET 0 -1.70687 -2.19456
      CHANNELS 3 Zrotation Xrotation Yrotation
      JOINT lShin
      {
        OFFSET 0 -36.8199 0.73152
        CHANNELS 3 Zrotation Xrotation Yrotation
        JOINT lFoot
        {
          OFFSET -0.73152 -45.1104 -5.12064
          CHANNELS 3 Zrotation Xrotation Yrotation
          End Site
          {
            OFFSET 1.1221 -3.69964 12.103
          }
        }
      }
    }
  }
}
MOTION
Frames:	4
Frame Time:	0.00833333
67.459 84.5547 46.1357 -2.33399 0.0369837 2.40245 8.62574 4.94114 -9.501 3.12407 0.184708 -2.46331 -7.88512 11.2049 -14.1108 17.769 4.25547 -27.5806 -0 0 0 -0 0 0 5.85655e-014 3.9821e-015 8.60241e-014 91.1074 51.0818 -21.9148 -28.1242 -39.7002 83.3862 -0.268357 -14.5887 -2.09626 -2.14273e-011 5.12516e-009 -1.13829e-009 -2.57446e-011 8.77579e-009 -1.96836e-009 -2.14294e-011 5.12516e-009 -1.13829e-009 7.73091 5.47488 0.417314 -2.14316e-011 5.12518e-009 -1.13829e-009 2.90554 0.965183 0.102902 -2.14267e-011 5.12517e-009 -1.13829e-009 10.2786 0.731801 0.0259123 -2.1428e-011 5.12517e-009 -1.13828e-009 2.22167 -0.733487 -0.20892 5.85226e-014 3.96948e-015 8.56762e-014 -69.8973 34.7242 3.06018 28.4197 -34.7856 -74.9911 1.19808 -29.4648 4.55409 -9.99455e-010 -1.27582e-008 -5.51308e-010 -1.71387e-009 -2.2144e-008 -9.75974e-010 -9.99462e-010 -1.27582e-008 -5.51298e-010 -7.73091 5.47488 -0.417314 -9.99461e-010 -1.27582e-008 -5.51305e-010 -2.90554 0.965183 -0.102902 -9.9946e-010 -1.27582e-008 -5.51309e-010 -10.2786 0.731801 -0.0259123 -9.99456e-010 -1.27582e-008 -5.51311e-010 -2.22167 -0.733487 0.20892 -2.03217e-016 0 -3.88251e-019 6.872 -18.6463 9.10438 -0.100606 27.896 0.124158 -1.82446 -5.85226 -9.15074 2.03217e-016 0 3.88251e-019 9.14661 -20.2533 8.62662 1.17836 61.0602 -1.46661 0.411335 6.01787 -0.408784 
67.3787 84.4711 46.7555 -2.4151 0.105588 2.04311 8.68286 4.89114 -9.08983 3.07891 0.0854486 -2.34634 -7.7078 10.8196 -13.7466 17.4155 5.159 -26.9874 -0 0 0 -0 0 0 5.83639e-014 1.89975e-014 7.9199e-014 91.1525 51.7248 -21.7282 -28.0361 -40.2091 84.3066 -0.270552 -14.6474 -2.10507 1.05597e-011 3.02134e-009 -7.80802e-010 2.54465e-011 5.1623e-009 -1.34956e-009 1.05577e-011 3.02135e-009 -7.80803e-010 7.73091 5.47488 0.417314 1.05562e-011 3.02136e-009 -7.80809e-010 2.90554 0.965183 0.102902 1.0562e-011 3.02135e-009 -7.80804e-010 10.2786 0.731801 0.0259123 1.0559e-011 3.02135e-009 -7.808e-010 2.22167 -0.733487 -0.20892 5.83142e-014 1.89829e-014 7.88573e-014 -68.835 34.263 2.67222 28.4351 -35.6245 -76.3841 1.27251 -30.2827 4.70646 -1.15846e-009 -1.55019e-008 -7.80785e-010 -1.98243e-009 -2.70998e-008 -1.37665e-009 -1.15846e-009 -1.55019e-008 -7.80777e-010 -7.73091 5.47488 -0.417314 -1.15846e-009 -1.55019e-008 -7.80785e-010 -2.90554 0.965183 -0.102902 -1.15846e-009 -1.55019e-008 -7.80786e-010 -10.2786 0.731801 -0.0259123 -1.15846e-009 -1.55019e-008 -7.80789e-010 -2.22167 -0.733487 0.20892 -2.03217e-016 0 -3.88251e-019 7.04232 -18.122 9.27738 -0.0957083 27.8923 0.153116 -1.91626 -6.25155 -9.33306 2.03217e-016 0 3.88251e-019 9.61395 -21.3648 9.01215 1.20008 61.398 -1.49817 0.413016 4.89272 0.0730546 
67.0516 84.3163 47.1545 -2.4973 0.271089 1.57421 8.73084 4.7627 -8.61796 3.03515 0.0214787 -2.21567 -7.46476 10.384 -13.391 16.9608 5.99392 -26.389 -0 0 0 -0 0 0 4.52787e-014 3.61361e-014 7.21868e-014 91.122 52.3372 -21.4619 -27.9444 -40.6991 85.1846 -0.275674 -14.7823 -2.12535 3.6524e-011 -2.14807e-010 -2.71397e-010 6.43748e-011 -3.96108e-010 -4.67752e-010 3.65228e-011 -2.14788e-010 -2.71403e-010 7.73091 5.47488 0.417314 3.65222e-011 -2.1478e-010 -2.71406e-010 2.90554 0.965183 0.102902 3.65291e-011 -2.14796e-010 -2.71404e-010 10.2786 0.731801 0.0259123 3.65231e-011 -2.14785e-010 -2.71399e-010 2.22167 -0.733487 -0.20892 4.51962e-014 3.61217e-014 7.18762e-014 -67.6628 33.629 2.16455 28.4272 -36.4629 -77.7683 1.37281 -31.3106 4.90282 -1.28653e-009 -1.80646e-008 -1.02226e-009 -2.19717e-009 -3.18406e-008 -1.79729e-009 -1.28653e-009 -1.80646e-008 -1.02225e-009 -7.73091 5.47488 -0.417314 -1.28653e-009 -1.80646e-008 -1.02226e-009 -2.90554 0.965183 -0.102902 -1.28653e-009 -1.80646e-008 -1.02226e-009 -10.2786 0.731801 -0.0259123 -1.28653e-009 -1.80647e-008 -1.02227e-009 -2.22167 -0.733487 0.20892 -2.03217e-016 0 -3.88251e-019 7.21524 -17.6323 9.49689 -0.089408 27.8239 0.182269 -2.00545 -6.64011 -9.49776 2.03217e-016 0 3.88251e-019 10.1106 -22.548 9.48451 1.213 61.6164 -1.52257 0.430599 3.85014 0.437936 
67.2863 84.2229 47.9588 -2.56577 0.459801 1.03404 8.76287 4.63197 -8.11058 2.98638 -0.0758805 -2.07511 -7.2171 9.98089 -13.0605 16.4852 6.7546 -25.8252 -0 0 0 -0 0 0 2.96052e-014 5.2305e-014 6.25391e-014 91.1429 52.8866 -21.2661 -27.848 -41.1603 86.0192 -0.281545 -14.934 -2.14818 6.3834e-011 -3.73864e-009 2.46329e-010 1.05658e-010 -6.45176e-009 4.28376e-010 6.38337e-011 -3.73861e-009 2.46319e-010 7.73091 5.47488 0.417314 6.38341e-011 -3.73861e-009 2.46319e-010 2.90554 0.965183 0.102902 6.3842e-011 -3.73863e-009 2.46318e-010 10.2786 0.731801 0.0259123 6.38329e-011 -3.73861e-009 2.46323e-010 2.22167 -0.733487 -0.20892 2.94855e-014 5.22921e-014 6.22658e-014 -66.4567 32.8809 1.65848 28.392 -37.2691 -79.1261 1.48879 -32.4219 5.12084 -1.33919e-009 -1.96554e-008 -1.21085e-009 -2.28286e-009 -3.48741e-008 -2.1247e-009 -1.33919e-009 -1.96554e-008 -1.21084e-009 -7.73091 5.47488 -0.417314 -1.33919e-009 -1.96554e-008 -1.21086e-009 -2.90554 0.965183 -0.102902 -1.33919e-009 -1.96554e-008 -1.21085e-009 -10.2786 0.731801 -0.0259123 -1.33918e-009 -1.96555e-008 -1.21086e-009 -2.22167 -0.733487 0.20892 -2.03217e-016 0 -3.88251e-019 7.38104 -17.1729 9.77628 -0.0830693 27.7486 0.211881 -2.0908 -7.02783 -9.62914 2.03217e-016 0 3.88251e-019 10.6052 -23.6761 9.97956 1.21225 61.646 -1.53422 0.459476 2.83189 0.765327 
